# xmcd CD database file
#
# Track frame offsets:
#	151
#	12410
#	17034
#	28664
#	33848
#	42048
#	46020
#	59432
#	86184
#	103656
#	109022
#	123852
#	137654
#	149680
#	162131
#	175649
#	191108
#	204881
#	218528
#	232705
#	246067
#	258300
#
# Disc length: 3611 seconds
#
# Revision: 0
# Processed by: cddbd v1.5.2PL0 Copyright (c) Steve Scherf et al.
# Submitted via: CDex 1.70beta2
#
DISCID=1d0e1916
DTITLE=Edwards - Virgial - Lockwood - Mississippi Blues Singers CD 6
DYEAR=2008
DGENRE=Blues
TTITLE0=Honeyboy Edwards - Spread My Raincoat Down
TTITLE1=HoneyBoy Edwards - Got To Roll #1
TTITLE2=Honeyboy Edwards - Got To Roll #2
TTITLE3=Honeyboy Edwards - Stagolee
TTITLE4=Honeyboy Edwards - Just a Spoonful
TTITLE5=Honeyboy Edwards - Hellatalkin' Blues
TTITLE6=Honeyboy Edwards - Worriedlife Blues
TTITLE7=Honeyboy Edwards - Water Coast Blues
TTITLE8=Honeyboy Edwards - The Army Blues
TTITLE9=Honeyboy Edwards - Tear It Down Rag
TTITLE10=Honeyboy Edwards - Wind Howlin' Blues
TTITLE11=Honeyboy Edwards - Roamin' and Gamblin' Blues
TTITLE12=Otto Virgial - Little Girl In Rome
TTITLE13=Otto Virgial - Bad Notion Blues
TTITLE14=Otto Virgial - Got The Blues About Rome
TTITLE15=Otto Virgial - Seven Year Itch
TTITLE16=Robert Lockwood - Black Spider Blues
TTITLE17=Robert Lockwood - I´m Gonna Train My Baby
TTITLE18=Robert Lockwood - Little Boy Blue
TTITLE19=Robert Lockwood - Take a Little Walk With Me
TTITLE20=Robert Lockwood - I´m Gonna Dig Myself A Hole
TTITLE21=Robert Lockwood - Dust My Broom
EXTD=YEAR: 2008
EXTT0=
EXTT1=
EXTT2=
EXTT3=
EXTT4=
EXTT5=
EXTT6=
EXTT7=
EXTT8=
EXTT9=
EXTT10=
EXTT11=
EXTT12=
EXTT13=
EXTT14=
EXTT15=
EXTT16=
EXTT17=
EXTT18=
EXTT19=
EXTT20=
EXTT21=
PLAYORDER=
